# File created by Blade
# Date/Time:  Thu Sep 25 18:58:07 2014
# Frame Rate: 120.000 fps
#------------------------------------------------------
:FULLY-SPECIFIED
:DEGREES
781
root 1.277608 32.932895 0.745507 7.215721 1.784676 -0.143883
Spine -7.578887 13.559415 0.745486
Head -12.549558 -5.617232 9.194677
LeftShoulder -16.484954 17.780837 26.218270
LeftArm 14.642633 -26.952602 -33.891700
LeftForeArm 14.923804 0.000000 14.046623
LeftHand -29.426249 -0.000000 -5.684924
LeftHandThumb1 -26.253704 0.000000 33.147579
RightShoulder -16.682379 18.404849 -36.618918
RightArm -13.686802 10.247645 32.867790
RightForeArm -31.340117 -0.000000 14.134247
RightHand -13.780949 0.000000 12.214434
RightHandThumb1 -24.326973 -0.000000 -32.862282
LeftUpLeg -3.934671 5.867485 4.500987
LeftLeg -0.003461 -0.000000 0.000000
LeftFoot -7.609305 -1.022352 -19.386295
LeftToeBase 7.885683 -0.000000 -0.000000
RightUpLeg -4.031759 -11.500134 -5.545353
RightLeg 2.986442 -0.000000 -0.000000
RightFoot -5.282357 0.459390 -2.509649
RightToeBase -11.606314 -0.000000 0.000000
782
root 1.285586 32.933504 0.748416 7.187835 1.670577 -0.168541
Spine -7.506902 13.401403 0.764532
Head -12.591454 -5.633178 9.331113
LeftShoulder -16.367004 17.629699 26.299664
LeftArm 14.710826 -26.722850 -33.778007
LeftForeArm 14.853265 -0.000000 13.944593
LeftHand -29.647396 -0.000000 -5.432226
LeftHandThumb1 -26.253704 0.000000 33.147579
RightShoulder -16.718511 18.411516 -36.569152
RightArm -13.677177 10.228233 32.858338
RightForeArm -31.407462 -0.000000 14.168392
RightHand -13.808654 0.000000 12.481181
RightHandThumb1 -24.326973 -0.000000 -32.862282
LeftUpLeg -3.864565 6.020289 4.496589
LeftLeg -0.048229 -0.000000 0.000000
LeftFoot -7.587509 -1.080980 -19.373995
LeftToeBase 7.873670 -0.000000 -0.000000
RightUpLeg -3.997925 -11.525970 -5.553748
RightLeg 2.941780 -0.000000 -0.000000
RightFoot -5.228467 0.576379 -2.387850
RightToeBase -11.573857 -0.000000 0.000000
783
root 1.293645 32.933696 0.750827 7.179752 1.555062 -0.192602
Spine -7.458571 13.223021 0.781017
Head -12.665919 -5.674880 9.452270
LeftShoulder -16.276192 17.601305 26.392208
LeftArm 14.809027 -26.690913 -33.815395
LeftForeArm 14.878152 -0.000000 14.030924
LeftHand -29.744694 -0.000000 -5.505750
LeftHandThumb1 -26.253704 0.000000 33.147579
RightShoulder -16.725959 18.394840 -36.543539
RightArm -13.663928 10.182789 32.908292
RightForeArm -31.442792 -0.000000 14.209784
RightHand -13.774386 -0.000000 12.597670
RightHandThumb1 -24.326973 -0.000000 -32.862282
LeftUpLeg -3.807573 6.184604 4.487808
LeftLeg -0.102433 -0.000000 0.000000
LeftFoot -7.571669 -1.105835 -19.346414
LeftToeBase 7.845263 -0.000000 -0.000000
RightUpLeg -3.988202 -11.542744 -5.560845
RightLeg 2.900109 -0.000000 -0.000000
RightFoot -5.177442 0.739813 -2.222625
RightToeBase -11.624635 -0.000000 0.000000
784
root 1.303449 32.933791 0.753604 7.164513 1.426492 -0.207225
Spine -7.406768 13.083704 0.792004
Head -12.704185 -5.738276 9.542290
LeftShoulder -16.178370 17.593501 26.466344
LeftArm 14.952903 -26.771082 -33.869014
LeftForeArm 14.958521 -0.000000 14.070016
LeftHand -29.687574 -0.000000 -5.576230
LeftHandThumb1 -26.253704 0.000000 33.147579
RightShoulder -16.728498 18.389789 -36.530914
RightArm -13.668902 10.211850 32.944726
RightForeArm -31.479432 -0.000000 14.189748
RightHand -13.777152 -0.000000 12.377853
RightHandThumb1 -24.326973 -0.000000 -32.862282
LeftUpLeg -3.737274 6.349457 4.467251
LeftLeg -0.151285 -0.000000 0.000000
LeftFoot -7.576899 -1.061501 -19.287163
LeftToeBase 7.955992 -0.000000 -0.000000
RightUpLeg -3.975277 -11.555809 -5.583720
RightLeg 2.861497 -0.000000 -0.000000
RightFoot -5.124171 0.915748 -2.037994
RightToeBase -11.653248 -0.000000 0.000000
